# xmcd CD database file
#
# Track frame offsets:
#	150
#	17564
#	50486
#	70258
#	83415
#	93218
#	102612
#	116060
#	130904
#	146618
#	161358
#	175663
#	191826
#	206307
#	220766
#	239658
#	251893
#	269598
#	293262
#
# Disc length: 4297 seconds
#
# Revision: 0
# Processed by: cddbd v1.5.2PL0 Copyright (c) Steve Scherf et al.
# Submitted via: CDex 1.51
#
DISCID=1110c713
DTITLE=Various Artist - Men in Jazz (La Première)(CD2)
DYEAR=2012
DGENRE=Jazz
TTITLE0=Ray LaMontagne - You Are The Best Thing
TTITLE1=Terry Callier - You're Gonna Miss Your Candyman
TTITLE2=Raphael Saadiq - Movin' Down The Line
TTITLE3=Mike Flowers Pops - Light My Fire
TTITLE4=Matt Monro - The Music To Watch Girls By
TTITLE5=Tony Bennett - Chicago
TTITLE6=Jacques Dutronc - J'Aime Les Filles
TTITLE7=Claude Nougaro - Armstrong
TTITLE8=Johnny Hartman - Nature Boy
TTITLE9=Robbie Williams - Mr Bojangles
TTITLE10=Mel Tormé - Blue Moon
TTITLE11=Ray Charles - Georgia On My Mind
TTITLE12=King Pleasure - I'm In The Mood For Love
TTITLE13=Jack Jones - Angel Eyes
TTITLE14=João Gilberto and Stan Getz - Desafinado
TTITLE15=Milton Nascimento - A Felicidade
TTITLE16=Grover Washington Jr. and Bill Withers - Just the Two of Us
TTITLE17=George Benson - On Broadway
TTITLE18=Quincy Jones - Ai No Corrida
EXTD=YEAR: 2012
EXTT0=
EXTT1=
EXTT2=
EXTT3=
EXTT4=
EXTT5=
EXTT6=
EXTT7=
EXTT8=
EXTT9=
EXTT10=
EXTT11=
EXTT12=
EXTT13=
EXTT14=
EXTT15=
EXTT16=
EXTT17=
EXTT18=
PLAYORDER=
